<?xml version="1.0" encoding="UTF-8" standalone="no"?>
<!-- Created with Inkscape (http://www.inkscape.org/) -->

<svg
   width="160mm"
   height="90mm"
   viewBox="0 0 160 90"
   version="1.1"
   id="svg5"
   inkscape:version="1.2.1 (1:1.2.1+202210291243+9c6d41e410)"
   sodipodi:docname="bg.svg"
   xmlns:inkscape="http://www.inkscape.org/namespaces/inkscape"
   xmlns:sodipodi="http://sodipodi.sourceforge.net/DTD/sodipodi-0.dtd"
   xmlns="http://www.w3.org/2000/svg"
   xmlns:svg="http://www.w3.org/2000/svg">
  <sodipodi:namedview
     id="namedview7"
     pagecolor="#ffffff"
     bordercolor="#000000"
     borderopacity="0.25"
     inkscape:showpageshadow="2"
     inkscape:pageopacity="0.0"
     inkscape:pagecheckerboard="0"
     inkscape:deskcolor="#d1d1d1"
     inkscape:document-units="mm"
     showgrid="false"
     inkscape:zoom="1.0860803"
     inkscape:cx="295.09789"
     inkscape:cy="339.29351"
     inkscape:window-width="1846"
     inkscape:window-height="1016"
     inkscape:window-x="74"
     inkscape:window-y="27"
     inkscape:window-maximized="1"
     inkscape:current-layer="layer1" />
  <defs
     id="defs2">
    <inkscape:path-effect
       effect="bspline"
       id="path-effect1518"
       is_visible="true"
       lpeversion="1"
       weight="33.333333"
       steps="2"
       helper_size="0"
       apply_no_weight="true"
       apply_with_weight="true"
       only_selected="false" />
  </defs>
  <g
     inkscape:label="Layer 1"
     inkscape:groupmode="layer"
     id="layer1">
    <path
       style="fill:#269633;fill-opacity:1;stroke:none;stroke-width:3.20115"
       d="m 161.70529,55.405635 c -5.01674,0 -10.14624,0 -15.12117,0.825087 -4.97494,0.825086 -9.83571,2.414725 -15.52004,3.518254 -5.68432,1.103529 -12.09933,1.690554 -17.90548,0.722033 -5.80616,-0.968522 -11.00314,-3.492728 -18.270974,-5.752881 -7.267839,-2.260153 -16.606152,-4.256036 -24.848531,-4.37352 -8.242378,-0.117484 -15.388219,1.643589 -22.899704,3.815635 -7.511484,2.172047 -15.387871,4.754863 -21.080692,5.03103 -5.69282,0.276167 -9.066504,-1.676791 -13.332064,-2.731214 -4.2655595,-1.054424 -9.738574,-1.054424 -14.9191525,-1.054424 0,0 0,34.974809 0,34.974809 0,0 164.2632275,-2.69e-4 164.2632275,-2.69e-4 0,0 -0.36542,-34.97454 -0.36542,-34.97454 z"
       id="path1516"
       inkscape:path-effect="#path-effect1518"
       inkscape:original-d="m 161.70529,55.405635 c 0,0 -10.14624,1.91e-4 -15.05023,0 -5.31456,0.8286 -9.90657,3.240063 -14.8604,4.859856 -6.41488,0.587227 -12.82989,1.174252 -19.24543,1.76111 -5.19681,-2.524065 -10.39379,-5.048269 -15.591235,-7.572766 -9.338235,-1.995732 -18.676548,-3.991615 -28.015501,-5.987769 -7.145718,1.761299 -14.291558,3.522373 -21.437949,5.283325 -7.876556,2.58315 -15.752943,5.165966 -23.630466,7.748877 -3.508217,-2.030799 -6.284098,-5.016445 -10.524861,-6.092633 -4.8881425,1.91e-4 -15.5417355,0 -15.5417355,0 V 90.380444 L 162.07071,90.380175 Z"
       sodipodi:nodetypes="caccccccacccc" />
  </g>
</svg>
